<svg width="50" height="50" viewBox="0 0 50 50" fill="none" xmlns="http://www.w3.org/2000/svg">
<path d="M38.2812 0H11.7188C5.24666 0 0 5.24666 0 11.7188V38.2812C0 44.7533 5.24666 50 11.7188 50H38.2812C44.7533 50 50 44.7533 50 38.2812V11.7188C50 5.24666 44.7533 0 38.2812 0Z" fill="#242938"/>
<mask id="mask0_115_47" style="mask-type:luminance" maskUnits="userSpaceOnUse" x="11" y="5" width="27" height="40">
<path d="M11.9141 5.46875H37.9609V44.5312H11.9141V5.46875Z" fill="white"/>
</mask>
<g mask="url(#mask0_115_47)">
<path d="M18.4272 44.5313C22.0209 44.5313 24.9375 41.6147 24.9375 38.0209V31.5104H18.4272C14.8334 31.5104 11.9166 34.4272 11.9166 38.0209C11.9166 41.6147 14.8334 44.5313 18.4272 44.5313Z" fill="#0ACF83"/>
<path d="M11.9166 25C11.9166 21.4062 14.8334 18.4896 18.4272 18.4896H24.9375V31.5103H18.4272C14.8334 31.5103 11.9166 28.5937 11.9166 25Z" fill="#A259FF"/>
<path d="M11.9166 11.9791C11.9166 8.38535 14.8334 5.46875 18.4272 5.46875H24.9375V18.4896H18.4272C14.8334 18.4896 11.9166 15.5729 11.9166 11.9791Z" fill="#F24E1E"/>
<path d="M24.9375 5.46875H31.4479C35.0416 5.46875 37.9584 8.38535 37.9584 11.9791C37.9584 15.5729 35.0416 18.4896 31.4479 18.4896H24.9375V5.46875Z" fill="#FF7262"/>
<path d="M37.9584 25C37.9584 28.5937 35.0416 31.5103 31.4479 31.5103C27.8541 31.5103 24.9375 28.5937 24.9375 25C24.9375 21.4062 27.8541 18.4896 31.4479 18.4896C35.0416 18.4896 37.9584 21.4062 37.9584 25Z" fill="#1ABCFE"/>
</g>
</svg>
